solid drawer_panel
  facet normal 0.0 0.0 1.0
    outer loop
      vertex -152.0 0.0 100.0
      vertex 152.0 0.0 100.0
      vertex 152.0 82.0 100.0
    endloop
  endfacet
  facet normal 0.0 0.0 1.0
    outer loop
      vertex -152.0 0.0 100.0
      vertex 152.0 82.0 100.0
      vertex -152.0 82.0 100.0
    endloop
  endfacet
  facet normal 0.0 0.0 -1.0
    outer loop
      vertex 152.0 0.0 104.0
      vertex -152.0 0.0 104.0
      vertex -152.0 82.0 104.0
    endloop
  endfacet
  facet normal 0.0 0.0 -1.0
    outer loop
      vertex 152.0 0.0 104.0
      vertex -152.0 82.0 104.0
      vertex 152.0 82.0 104.0
    endloop
  endfacet
  facet normal 1.0 0.0 0.0
    outer loop
      vertex -152.0 0.0 104.0
      vertex -152.0 0.0 100.0
      vertex -152.0 82.0 100.0
    endloop
  endfacet
  facet normal 1.0 -0.0 0.0
    outer loop
      vertex -152.0 0.0 104.0
      vertex -152.0 82.0 100.0
      vertex -152.0 82.0 104.0
    endloop
  endfacet
  facet normal -1.0 0.0 0.0
    outer loop
      vertex 152.0 0.0 100.0
      vertex 152.0 0.0 104.0
      vertex 152.0 82.0 104.0
    endloop
  endfacet
  facet normal -1.0 0.0 0.0
    outer loop
      vertex 152.0 0.0 100.0
      vertex 152.0 82.0 104.0
      vertex 152.0 82.0 100.0
    endloop
  endfacet
  facet normal 0.0 -1.0 0.0
    outer loop
      vertex -152.0 82.0 100.0
      vertex 152.0 82.0 100.0
      vertex 152.0 82.0 104.0
    endloop
  endfacet
  facet normal 0.0 -1.0 0.0
    outer loop
      vertex -152.0 82.0 100.0
      vertex 152.0 82.0 104.0
      vertex -152.0 82.0 104.0
    endloop
  endfacet
  facet normal -0.0 1.0 0.0
    outer loop
      vertex -152.0 0.0 104.0
      vertex 152.0 0.0 104.0
      vertex 152.0 0.0 100.0
    endloop
  endfacet
  facet normal 0.0 1.0 0.0
    outer loop
      vertex -152.0 0.0 104.0
      vertex 152.0 0.0 100.0
      vertex -152.0 0.0 100.0
    endloop
  endfacet
  facet normal 0.0 0.0 1.0
    outer loop
      vertex -50.0 37.0 104.0
      vertex 50.0 37.0 104.0
      vertex 50.0 45.0 104.0
    endloop
  endfacet
  facet normal 0.0 0.0 1.0
    outer loop
      vertex -50.0 37.0 104.0
      vertex 50.0 45.0 104.0
      vertex -50.0 45.0 104.0
    endloop
  endfacet
  facet normal 0.0 0.0 -1.0
    outer loop
      vertex 50.0 37.0 119.0
      vertex -50.0 37.0 119.0
      vertex -50.0 45.0 119.0
    endloop
  endfacet
  facet normal 0.0 0.0 -1.0
    outer loop
      vertex 50.0 37.0 119.0
      vertex -50.0 45.0 119.0
      vertex 50.0 45.0 119.0
    endloop
  endfacet
  facet normal 1.0 0.0 0.0
    outer loop
      vertex -50.0 37.0 119.0
      vertex -50.0 37.0 104.0
      vertex -50.0 45.0 104.0
    endloop
  endfacet
  facet normal 1.0 -0.0 0.0
    outer loop
      vertex -50.0 37.0 119.0
      vertex -50.0 45.0 104.0
      vertex -50.0 45.0 119.0
    endloop
  endfacet
  facet normal -1.0 0.0 0.0
    outer loop
      vertex 50.0 37.0 104.0
      vertex 50.0 37.0 119.0
      vertex 50.0 45.0 119.0
    endloop
  endfacet
  facet normal -1.0 0.0 0.0
    outer loop
      vertex 50.0 37.0 104.0
      vertex 50.0 45.0 119.0
      vertex 50.0 45.0 104.0
    endloop
  endfacet
  facet normal 0.0 -1.0 0.0
    outer loop
      vertex -50.0 45.0 104.0
      vertex 50.0 45.0 104.0
      vertex 50.0 45.0 119.0
    endloop
  endfacet
  facet normal 0.0 -1.0 0.0
    outer loop
      vertex -50.0 45.0 104.0
      vertex 50.0 45.0 119.0
      vertex -50.0 45.0 119.0
    endloop
  endfacet
  facet normal -0.0 1.0 0.0
    outer loop
      vertex -50.0 37.0 119.0
      vertex 50.0 37.0 119.0
      vertex 50.0 37.0 104.0
    endloop
  endfacet
  facet normal 0.0 1.0 0.0
    outer loop
      vertex -50.0 37.0 119.0
      vertex 50.0 37.0 104.0
      vertex -50.0 37.0 104.0
    endloop
  endfacet
  facet normal 0.0 0.0 1.0
    outer loop
      vertex -45.0 37.0 104.0
      vertex -39.0 37.0 104.0
      vertex -39.0 45.0 104.0
    endloop
  endfacet
  facet normal 0.0 0.0 1.0
    outer loop
      vertex -45.0 37.0 104.0
      vertex -39.0 45.0 104.0
      vertex -45.0 45.0 104.0
    endloop
  endfacet
  facet normal 0.0 0.0 -1.0
    outer loop
      vertex -39.0 37.0 119.0
      vertex -45.0 37.0 119.0
      vertex -45.0 45.0 119.0
    endloop
  endfacet
  facet normal 0.0 0.0 -1.0
    outer loop
      vertex -39.0 37.0 119.0
      vertex -45.0 45.0 119.0
      vertex -39.0 45.0 119.0
    endloop
  endfacet
  facet normal 1.0 0.0 0.0
    outer loop
      vertex -45.0 37.0 119.0
      vertex -45.0 37.0 104.0
      vertex -45.0 45.0 104.0
    endloop
  endfacet
  facet normal 1.0 -0.0 0.0
    outer loop
      vertex -45.0 37.0 119.0
      vertex -45.0 45.0 104.0
      vertex -45.0 45.0 119.0
    endloop
  endfacet
  facet normal -1.0 0.0 0.0
    outer loop
      vertex -39.0 37.0 104.0
      vertex -39.0 37.0 119.0
      vertex -39.0 45.0 119.0
    endloop
  endfacet
  facet normal -1.0 0.0 0.0
    outer loop
      vertex -39.0 37.0 104.0
      vertex -39.0 45.0 119.0
      vertex -39.0 45.0 104.0
    endloop
  endfacet
  facet normal 0.0 -1.0 0.0
    outer loop
      vertex -45.0 45.0 104.0
      vertex -39.0 45.0 104.0
      vertex -39.0 45.0 119.0
    endloop
  endfacet
  facet normal 0.0 -1.0 0.0
    outer loop
      vertex -45.0 45.0 104.0
      vertex -39.0 45.0 119.0
      vertex -45.0 45.0 119.0
    endloop
  endfacet
  facet normal -0.0 1.0 0.0
    outer loop
      vertex -45.0 37.0 119.0
      vertex -39.0 37.0 119.0
      vertex -39.0 37.0 104.0
    endloop
  endfacet
  facet normal 0.0 1.0 0.0
    outer loop
      vertex -45.0 37.0 119.0
      vertex -39.0 37.0 104.0
      vertex -45.0 37.0 104.0
    endloop
  endfacet
  facet normal 0.0 0.0 1.0
    outer loop
      vertex 39.0 37.0 104.0
      vertex 45.0 37.0 104.0
      vertex 45.0 45.0 104.0
    endloop
  endfacet
  facet normal 0.0 0.0 1.0
    outer loop
      vertex 39.0 37.0 104.0
      vertex 45.0 45.0 104.0
      vertex 39.0 45.0 104.0
    endloop
  endfacet
  facet normal 0.0 0.0 -1.0
    outer loop
      vertex 45.0 37.0 119.0
      vertex 39.0 37.0 119.0
      vertex 39.0 45.0 119.0
    endloop
  endfacet
  facet normal 0.0 0.0 -1.0
    outer loop
      vertex 45.0 37.0 119.0
      vertex 39.0 45.0 119.0
      vertex 45.0 45.0 119.0
    endloop
  endfacet
  facet normal 1.0 0.0 0.0
    outer loop
      vertex 39.0 37.0 119.0
      vertex 39.0 37.0 104.0
      vertex 39.0 45.0 104.0
    endloop
  endfacet
  facet normal 1.0 -0.0 0.0
    outer loop
      vertex 39.0 37.0 119.0
      vertex 39.0 45.0 104.0
      vertex 39.0 45.0 119.0
    endloop
  endfacet
  facet normal -1.0 0.0 0.0
    outer loop
      vertex 45.0 37.0 104.0
      vertex 45.0 37.0 119.0
      vertex 45.0 45.0 119.0
    endloop
  endfacet
  facet normal -1.0 0.0 0.0
    outer loop
      vertex 45.0 37.0 104.0
      vertex 45.0 45.0 119.0
      vertex 45.0 45.0 104.0
    endloop
  endfacet
  facet normal 0.0 -1.0 0.0
    outer loop
      vertex 39.0 45.0 104.0
      vertex 45.0 45.0 104.0
      vertex 45.0 45.0 119.0
    endloop
  endfacet
  facet normal 0.0 -1.0 0.0
    outer loop
      vertex 39.0 45.0 104.0
      vertex 45.0 45.0 119.0
      vertex 39.0 45.0 119.0
    endloop
  endfacet
  facet normal -0.0 1.0 0.0
    outer loop
      vertex 39.0 37.0 119.0
      vertex 45.0 37.0 119.0
      vertex 45.0 37.0 104.0
    endloop
  endfacet
  facet normal 0.0 1.0 0.0
    outer loop
      vertex 39.0 37.0 119.0
      vertex 45.0 37.0 104.0
      vertex 39.0 37.0 104.0
    endloop
  endfacet
endsolid drawer_panel
