solid drawer_assembly
  facet normal 0.0 0.0 1.0
    outer loop
      vertex -150.0 0.0 -100.0
      vertex 150.0 0.0 -100.0
      vertex 150.0 3.0 -100.0
    endloop
  endfacet
  facet normal 0.0 0.0 1.0
    outer loop
      vertex -150.0 0.0 -100.0
      vertex 150.0 3.0 -100.0
      vertex -150.0 3.0 -100.0
    endloop
  endfacet
  facet normal 0.0 0.0 -1.0
    outer loop
      vertex 150.0 0.0 100.0
      vertex -150.0 0.0 100.0
      vertex -150.0 3.0 100.0
    endloop
  endfacet
  facet normal 0.0 0.0 -1.0
    outer loop
      vertex 150.0 0.0 100.0
      vertex -150.0 3.0 100.0
      vertex 150.0 3.0 100.0
    endloop
  endfacet
  facet normal 1.0 0.0 0.0
    outer loop
      vertex -150.0 0.0 100.0
      vertex -150.0 0.0 -100.0
      vertex -150.0 3.0 -100.0
    endloop
  endfacet
  facet normal 1.0 -0.0 0.0
    outer loop
      vertex -150.0 0.0 100.0
      vertex -150.0 3.0 -100.0
      vertex -150.0 3.0 100.0
    endloop
  endfacet
  facet normal -1.0 0.0 0.0
    outer loop
      vertex 150.0 0.0 -100.0
      vertex 150.0 0.0 100.0
      vertex 150.0 3.0 100.0
    endloop
  endfacet
  facet normal -1.0 0.0 0.0
    outer loop
      vertex 150.0 0.0 -100.0
      vertex 150.0 3.0 100.0
      vertex 150.0 3.0 -100.0
    endloop
  endfacet
  facet normal 0.0 -1.0 0.0
    outer loop
      vertex -150.0 3.0 -100.0
      vertex 150.0 3.0 -100.0
      vertex 150.0 3.0 100.0
    endloop
  endfacet
  facet normal 0.0 -1.0 0.0
    outer loop
      vertex -150.0 3.0 -100.0
      vertex 150.0 3.0 100.0
      vertex -150.0 3.0 100.0
    endloop
  endfacet
  facet normal -0.0 1.0 0.0
    outer loop
      vertex -150.0 0.0 100.0
      vertex 150.0 0.0 100.0
      vertex 150.0 0.0 -100.0
    endloop
  endfacet
  facet normal 0.0 1.0 0.0
    outer loop
      vertex -150.0 0.0 100.0
      vertex 150.0 0.0 -100.0
      vertex -150.0 0.0 -100.0
    endloop
  endfacet
  facet normal 0.0 0.0 1.0
    outer loop
      vertex -150.0 3.0 -1.5
      vertex 150.0 3.0 -1.5
      vertex 150.0 73.0 -1.5
    endloop
  endfacet
  facet normal 0.0 0.0 1.0
    outer loop
      vertex -150.0 3.0 -1.5
      vertex 150.0 73.0 -1.5
      vertex -150.0 73.0 -1.5
    endloop
  endfacet
  facet normal 0.0 0.0 -1.0
    outer loop
      vertex 150.0 3.0 1.5
      vertex -150.0 3.0 1.5
      vertex -150.0 73.0 1.5
    endloop
  endfacet
  facet normal 0.0 0.0 -1.0
    outer loop
      vertex 150.0 3.0 1.5
      vertex -150.0 73.0 1.5
      vertex 150.0 73.0 1.5
    endloop
  endfacet
  facet normal 1.0 0.0 0.0
    outer loop
      vertex -150.0 3.0 1.5
      vertex -150.0 3.0 -1.5
      vertex -150.0 73.0 -1.5
    endloop
  endfacet
  facet normal 1.0 -0.0 0.0
    outer loop
      vertex -150.0 3.0 1.5
      vertex -150.0 73.0 -1.5
      vertex -150.0 73.0 1.5
    endloop
  endfacet
  facet normal -1.0 0.0 0.0
    outer loop
      vertex 150.0 3.0 -1.5
      vertex 150.0 3.0 1.5
      vertex 150.0 73.0 1.5
    endloop
  endfacet
  facet normal -1.0 0.0 0.0
    outer loop
      vertex 150.0 3.0 -1.5
      vertex 150.0 73.0 1.5
      vertex 150.0 73.0 -1.5
    endloop
  endfacet
  facet normal 0.0 -1.0 0.0
    outer loop
      vertex -150.0 73.0 -1.5
      vertex 150.0 73.0 -1.5
      vertex 150.0 73.0 1.5
    endloop
  endfacet
  facet normal 0.0 -1.0 0.0
    outer loop
      vertex -150.0 73.0 -1.5
      vertex 150.0 73.0 1.5
      vertex -150.0 73.0 1.5
    endloop
  endfacet
  facet normal -0.0 1.0 0.0
    outer loop
      vertex -150.0 3.0 1.5
      vertex 150.0 3.0 1.5
      vertex 150.0 3.0 -1.5
    endloop
  endfacet
  facet normal 0.0 1.0 0.0
    outer loop
      vertex -150.0 3.0 1.5
      vertex 150.0 3.0 -1.5
      vertex -150.0 3.0 -1.5
    endloop
  endfacet
  facet normal 0.0 0.0 1.0
    outer loop
      vertex -150.0 3.0 -98.5
      vertex -147.0 3.0 -98.5
      vertex -147.0 73.0 -98.5
    endloop
  endfacet
  facet normal 0.0 0.0 1.0
    outer loop
      vertex -150.0 3.0 -98.5
      vertex -147.0 73.0 -98.5
      vertex -150.0 73.0 -98.5
    endloop
  endfacet
  facet normal 0.0 0.0 -1.0
    outer loop
      vertex -147.0 3.0 98.5
      vertex -150.0 3.0 98.5
      vertex -150.0 73.0 98.5
    endloop
  endfacet
  facet normal 0.0 0.0 -1.0
    outer loop
      vertex -147.0 3.0 98.5
      vertex -150.0 73.0 98.5
      vertex -147.0 73.0 98.5
    endloop
  endfacet
  facet normal 1.0 0.0 0.0
    outer loop
      vertex -150.0 3.0 98.5
      vertex -150.0 3.0 -98.5
      vertex -150.0 73.0 -98.5
    endloop
  endfacet
  facet normal 1.0 -0.0 0.0
    outer loop
      vertex -150.0 3.0 98.5
      vertex -150.0 73.0 -98.5
      vertex -150.0 73.0 98.5
    endloop
  endfacet
  facet normal -1.0 0.0 0.0
    outer loop
      vertex -147.0 3.0 -98.5
      vertex -147.0 3.0 98.5
      vertex -147.0 73.0 98.5
    endloop
  endfacet
  facet normal -1.0 0.0 0.0
    outer loop
      vertex -147.0 3.0 -98.5
      vertex -147.0 73.0 98.5
      vertex -147.0 73.0 -98.5
    endloop
  endfacet
  facet normal 0.0 -1.0 0.0
    outer loop
      vertex -150.0 73.0 -98.5
      vertex -147.0 73.0 -98.5
      vertex -147.0 73.0 98.5
    endloop
  endfacet
  facet normal 0.0 -1.0 0.0
    outer loop
      vertex -150.0 73.0 -98.5
      vertex -147.0 73.0 98.5
      vertex -150.0 73.0 98.5
    endloop
  endfacet
  facet normal -0.0 1.0 0.0
    outer loop
      vertex -150.0 3.0 98.5
      vertex -147.0 3.0 98.5
      vertex -147.0 3.0 -98.5
    endloop
  endfacet
  facet normal 0.0 1.0 0.0
    outer loop
      vertex -150.0 3.0 98.5
      vertex -147.0 3.0 -98.5
      vertex -150.0 3.0 -98.5
    endloop
  endfacet
  facet normal 0.0 0.0 1.0
    outer loop
      vertex 147.0 3.0 -98.5
      vertex 150.0 3.0 -98.5
      vertex 150.0 73.0 -98.5
    endloop
  endfacet
  facet normal 0.0 0.0 1.0
    outer loop
      vertex 147.0 3.0 -98.5
      vertex 150.0 73.0 -98.5
      vertex 147.0 73.0 -98.5
    endloop
  endfacet
  facet normal 0.0 0.0 -1.0
    outer loop
      vertex 150.0 3.0 98.5
      vertex 147.0 3.0 98.5
      vertex 147.0 73.0 98.5
    endloop
  endfacet
  facet normal 0.0 0.0 -1.0
    outer loop
      vertex 150.0 3.0 98.5
      vertex 147.0 73.0 98.5
      vertex 150.0 73.0 98.5
    endloop
  endfacet
  facet normal 1.0 0.0 0.0
    outer loop
      vertex 147.0 3.0 98.5
      vertex 147.0 3.0 -98.5
      vertex 147.0 73.0 -98.5
    endloop
  endfacet
  facet normal 1.0 -0.0 0.0
    outer loop
      vertex 147.0 3.0 98.5
      vertex 147.0 73.0 -98.5
      vertex 147.0 73.0 98.5
    endloop
  endfacet
  facet normal -1.0 0.0 0.0
    outer loop
      vertex 150.0 3.0 -98.5
      vertex 150.0 3.0 98.5
      vertex 150.0 73.0 98.5
    endloop
  endfacet
  facet normal -1.0 0.0 0.0
    outer loop
      vertex 150.0 3.0 -98.5
      vertex 150.0 73.0 98.5
      vertex 150.0 73.0 -98.5
    endloop
  endfacet
  facet normal 0.0 -1.0 0.0
    outer loop
      vertex 147.0 73.0 -98.5
      vertex 150.0 73.0 -98.5
      vertex 150.0 73.0 98.5
    endloop
  endfacet
  facet normal 0.0 -1.0 0.0
    outer loop
      vertex 147.0 73.0 -98.5
      vertex 150.0 73.0 98.5
      vertex 147.0 73.0 98.5
    endloop
  endfacet
  facet normal -0.0 1.0 0.0
    outer loop
      vertex 147.0 3.0 98.5
      vertex 150.0 3.0 98.5
      vertex 150.0 3.0 -98.5
    endloop
  endfacet
  facet normal 0.0 1.0 0.0
    outer loop
      vertex 147.0 3.0 98.5
      vertex 150.0 3.0 -98.5
      vertex 147.0 3.0 -98.5
    endloop
  endfacet
  facet normal 0.0 0.0 1.0
    outer loop
      vertex -142.0 73.0 -6.5
      vertex 142.0 73.0 -6.5
      vertex 142.0 76.0 -6.5
    endloop
  endfacet
  facet normal 0.0 0.0 1.0
    outer loop
      vertex -142.0 73.0 -6.5
      vertex 142.0 76.0 -6.5
      vertex -142.0 76.0 -6.5
    endloop
  endfacet
  facet normal 0.0 0.0 -1.0
    outer loop
      vertex 142.0 73.0 -3.5
      vertex -142.0 73.0 -3.5
      vertex -142.0 76.0 -3.5
    endloop
  endfacet
  facet normal 0.0 0.0 -1.0
    outer loop
      vertex 142.0 73.0 -3.5
      vertex -142.0 76.0 -3.5
      vertex 142.0 76.0 -3.5
    endloop
  endfacet
  facet normal 1.0 0.0 0.0
    outer loop
      vertex -142.0 73.0 -3.5
      vertex -142.0 73.0 -6.5
      vertex -142.0 76.0 -6.5
    endloop
  endfacet
  facet normal 1.0 -0.0 0.0
    outer loop
      vertex -142.0 73.0 -3.5
      vertex -142.0 76.0 -6.5
      vertex -142.0 76.0 -3.5
    endloop
  endfacet
  facet normal -1.0 0.0 0.0
    outer loop
      vertex 142.0 73.0 -6.5
      vertex 142.0 73.0 -3.5
      vertex 142.0 76.0 -3.5
    endloop
  endfacet
  facet normal -1.0 0.0 0.0
    outer loop
      vertex 142.0 73.0 -6.5
      vertex 142.0 76.0 -3.5
      vertex 142.0 76.0 -6.5
    endloop
  endfacet
  facet normal 0.0 -1.0 0.0
    outer loop
      vertex -142.0 76.0 -6.5
      vertex 142.0 76.0 -6.5
      vertex 142.0 76.0 -3.5
    endloop
  endfacet
  facet normal 0.0 -1.0 0.0
    outer loop
      vertex -142.0 76.0 -6.5
      vertex 142.0 76.0 -3.5
      vertex -142.0 76.0 -3.5
    endloop
  endfacet
  facet normal -0.0 1.0 0.0
    outer loop
      vertex -142.0 73.0 -3.5
      vertex 142.0 73.0 -3.5
      vertex 142.0 73.0 -6.5
    endloop
  endfacet
  facet normal 0.0 1.0 0.0
    outer loop
      vertex -142.0 73.0 -3.5
      vertex 142.0 73.0 -6.5
      vertex -142.0 73.0 -6.5
    endloop
  endfacet
  facet normal 0.0 0.0 1.0
    outer loop
      vertex -142.0 73.0 3.5
      vertex 142.0 73.0 3.5
      vertex 142.0 76.0 3.5
    endloop
  endfacet
  facet normal 0.0 0.0 1.0
    outer loop
      vertex -142.0 73.0 3.5
      vertex 142.0 76.0 3.5
      vertex -142.0 76.0 3.5
    endloop
  endfacet
  facet normal 0.0 0.0 -1.0
    outer loop
      vertex 142.0 73.0 6.5
      vertex -142.0 73.0 6.5
      vertex -142.0 76.0 6.5
    endloop
  endfacet
  facet normal 0.0 0.0 -1.0
    outer loop
      vertex 142.0 73.0 6.5
      vertex -142.0 76.0 6.5
      vertex 142.0 76.0 6.5
    endloop
  endfacet
  facet normal 1.0 0.0 0.0
    outer loop
      vertex -142.0 73.0 6.5
      vertex -142.0 73.0 3.5
      vertex -142.0 76.0 3.5
    endloop
  endfacet
  facet normal 1.0 -0.0 0.0
    outer loop
      vertex -142.0 73.0 6.5
      vertex -142.0 76.0 3.5
      vertex -142.0 76.0 6.5
    endloop
  endfacet
  facet normal -1.0 0.0 0.0
    outer loop
      vertex 142.0 73.0 3.5
      vertex 142.0 73.0 6.5
      vertex 142.0 76.0 6.5
    endloop
  endfacet
  facet normal -1.0 0.0 0.0
    outer loop
      vertex 142.0 73.0 3.5
      vertex 142.0 76.0 6.5
      vertex 142.0 76.0 3.5
    endloop
  endfacet
  facet normal 0.0 -1.0 0.0
    outer loop
      vertex -142.0 76.0 3.5
      vertex 142.0 76.0 3.5
      vertex 142.0 76.0 6.5
    endloop
  endfacet
  facet normal 0.0 -1.0 0.0
    outer loop
      vertex -142.0 76.0 3.5
      vertex 142.0 76.0 6.5
      vertex -142.0 76.0 6.5
    endloop
  endfacet
  facet normal -0.0 1.0 0.0
    outer loop
      vertex -142.0 73.0 6.5
      vertex 142.0 73.0 6.5
      vertex 142.0 73.0 3.5
    endloop
  endfacet
  facet normal 0.0 1.0 0.0
    outer loop
      vertex -142.0 73.0 6.5
      vertex 142.0 73.0 3.5
      vertex -142.0 73.0 3.5
    endloop
  endfacet
  facet normal 0.0 0.0 1.0
    outer loop
      vertex -150.0 73.0 -92.0
      vertex -147.0 73.0 -92.0
      vertex -147.0 76.0 -92.0
    endloop
  endfacet
  facet normal 0.0 0.0 1.0
    outer loop
      vertex -150.0 73.0 -92.0
      vertex -147.0 76.0 -92.0
      vertex -150.0 76.0 -92.0
    endloop
  endfacet
  facet normal 0.0 0.0 -1.0
    outer loop
      vertex -147.0 73.0 92.0
      vertex -150.0 73.0 92.0
      vertex -150.0 76.0 92.0
    endloop
  endfacet
  facet normal 0.0 0.0 -1.0
    outer loop
      vertex -147.0 73.0 92.0
      vertex -150.0 76.0 92.0
      vertex -147.0 76.0 92.0
    endloop
  endfacet
  facet normal 1.0 0.0 0.0
    outer loop
      vertex -150.0 73.0 92.0
      vertex -150.0 73.0 -92.0
      vertex -150.0 76.0 -92.0
    endloop
  endfacet
  facet normal 1.0 -0.0 0.0
    outer loop
      vertex -150.0 73.0 92.0
      vertex -150.0 76.0 -92.0
      vertex -150.0 76.0 92.0
    endloop
  endfacet
  facet normal -1.0 0.0 0.0
    outer loop
      vertex -147.0 73.0 -92.0
      vertex -147.0 73.0 92.0
      vertex -147.0 76.0 92.0
    endloop
  endfacet
  facet normal -1.0 0.0 0.0
    outer loop
      vertex -147.0 73.0 -92.0
      vertex -147.0 76.0 92.0
      vertex -147.0 76.0 -92.0
    endloop
  endfacet
  facet normal 0.0 -1.0 0.0
    outer loop
      vertex -150.0 76.0 -92.0
      vertex -147.0 76.0 -92.0
      vertex -147.0 76.0 92.0
    endloop
  endfacet
  facet normal 0.0 -1.0 0.0
    outer loop
      vertex -150.0 76.0 -92.0
      vertex -147.0 76.0 92.0
      vertex -150.0 76.0 92.0
    endloop
  endfacet
  facet normal -0.0 1.0 0.0
    outer loop
      vertex -150.0 73.0 92.0
      vertex -147.0 73.0 92.0
      vertex -147.0 73.0 -92.0
    endloop
  endfacet
  facet normal 0.0 1.0 0.0
    outer loop
      vertex -150.0 73.0 92.0
      vertex -147.0 73.0 -92.0
      vertex -150.0 73.0 -92.0
    endloop
  endfacet
  facet normal 0.0 0.0 1.0
    outer loop
      vertex 147.0 73.0 -92.0
      vertex 150.0 73.0 -92.0
      vertex 150.0 76.0 -92.0
    endloop
  endfacet
  facet normal 0.0 0.0 1.0
    outer loop
      vertex 147.0 73.0 -92.0
      vertex 150.0 76.0 -92.0
      vertex 147.0 76.0 -92.0
    endloop
  endfacet
  facet normal 0.0 0.0 -1.0
    outer loop
      vertex 150.0 73.0 92.0
      vertex 147.0 73.0 92.0
      vertex 147.0 76.0 92.0
    endloop
  endfacet
  facet normal 0.0 0.0 -1.0
    outer loop
      vertex 150.0 73.0 92.0
      vertex 147.0 76.0 92.0
      vertex 150.0 76.0 92.0
    endloop
  endfacet
  facet normal 1.0 0.0 0.0
    outer loop
      vertex 147.0 73.0 92.0
      vertex 147.0 73.0 -92.0
      vertex 147.0 76.0 -92.0
    endloop
  endfacet
  facet normal 1.0 -0.0 0.0
    outer loop
      vertex 147.0 73.0 92.0
      vertex 147.0 76.0 -92.0
      vertex 147.0 76.0 92.0
    endloop
  endfacet
  facet normal -1.0 0.0 0.0
    outer loop
      vertex 150.0 73.0 -92.0
      vertex 150.0 73.0 92.0
      vertex 150.0 76.0 92.0
    endloop
  endfacet
  facet normal -1.0 0.0 0.0
    outer loop
      vertex 150.0 73.0 -92.0
      vertex 150.0 76.0 92.0
      vertex 150.0 76.0 -92.0
    endloop
  endfacet
  facet normal 0.0 -1.0 0.0
    outer loop
      vertex 147.0 76.0 -92.0
      vertex 150.0 76.0 -92.0
      vertex 150.0 76.0 92.0
    endloop
  endfacet
  facet normal 0.0 -1.0 0.0
    outer loop
      vertex 147.0 76.0 -92.0
      vertex 150.0 76.0 92.0
      vertex 147.0 76.0 92.0
    endloop
  endfacet
  facet normal -0.0 1.0 0.0
    outer loop
      vertex 147.0 73.0 92.0
      vertex 150.0 73.0 92.0
      vertex 150.0 73.0 -92.0
    endloop
  endfacet
  facet normal 0.0 1.0 0.0
    outer loop
      vertex 147.0 73.0 92.0
      vertex 150.0 73.0 -92.0
      vertex 147.0 73.0 -92.0
    endloop
  endfacet
  facet normal 0.0 0.0 1.0
    outer loop
      vertex -141.5 -2.5 -6.25
      vertex 141.5 -2.5 -6.25
      vertex 141.5 0.0 -6.25
    endloop
  endfacet
  facet normal 0.0 0.0 1.0
    outer loop
      vertex -141.5 -2.5 -6.25
      vertex 141.5 0.0 -6.25
      vertex -141.5 0.0 -6.25
    endloop
  endfacet
  facet normal 0.0 0.0 -1.0
    outer loop
      vertex 141.5 -2.5 -3.75
      vertex -141.5 -2.5 -3.75
      vertex -141.5 0.0 -3.75
    endloop
  endfacet
  facet normal 0.0 0.0 -1.0
    outer loop
      vertex 141.5 -2.5 -3.75
      vertex -141.5 0.0 -3.75
      vertex 141.5 0.0 -3.75
    endloop
  endfacet
  facet normal 1.0 0.0 0.0
    outer loop
      vertex -141.5 -2.5 -3.75
      vertex -141.5 -2.5 -6.25
      vertex -141.5 0.0 -6.25
    endloop
  endfacet
  facet normal 1.0 -0.0 0.0
    outer loop
      vertex -141.5 -2.5 -3.75
      vertex -141.5 0.0 -6.25
      vertex -141.5 0.0 -3.75
    endloop
  endfacet
  facet normal -1.0 0.0 0.0
    outer loop
      vertex 141.5 -2.5 -6.25
      vertex 141.5 -2.5 -3.75
      vertex 141.5 0.0 -3.75
    endloop
  endfacet
  facet normal -1.0 0.0 0.0
    outer loop
      vertex 141.5 -2.5 -6.25
      vertex 141.5 0.0 -3.75
      vertex 141.5 0.0 -6.25
    endloop
  endfacet
  facet normal 0.0 -1.0 0.0
    outer loop
      vertex -141.5 0.0 -6.25
      vertex 141.5 0.0 -6.25
      vertex 141.5 0.0 -3.75
    endloop
  endfacet
  facet normal 0.0 -1.0 0.0
    outer loop
      vertex -141.5 0.0 -6.25
      vertex 141.5 0.0 -3.75
      vertex -141.5 0.0 -3.75
    endloop
  endfacet
  facet normal -0.0 1.0 0.0
    outer loop
      vertex -141.5 -2.5 -3.75
      vertex 141.5 -2.5 -3.75
      vertex 141.5 -2.5 -6.25
    endloop
  endfacet
  facet normal 0.0 1.0 0.0
    outer loop
      vertex -141.5 -2.5 -3.75
      vertex 141.5 -2.5 -6.25
      vertex -141.5 -2.5 -6.25
    endloop
  endfacet
  facet normal 0.0 0.0 1.0
    outer loop
      vertex -141.5 -2.5 3.75
      vertex 141.5 -2.5 3.75
      vertex 141.5 0.0 3.75
    endloop
  endfacet
  facet normal 0.0 0.0 1.0
    outer loop
      vertex -141.5 -2.5 3.75
      vertex 141.5 0.0 3.75
      vertex -141.5 0.0 3.75
    endloop
  endfacet
  facet normal 0.0 0.0 -1.0
    outer loop
      vertex 141.5 -2.5 6.25
      vertex -141.5 -2.5 6.25
      vertex -141.5 0.0 6.25
    endloop
  endfacet
  facet normal 0.0 0.0 -1.0
    outer loop
      vertex 141.5 -2.5 6.25
      vertex -141.5 0.0 6.25
      vertex 141.5 0.0 6.25
    endloop
  endfacet
  facet normal 1.0 0.0 0.0
    outer loop
      vertex -141.5 -2.5 6.25
      vertex -141.5 -2.5 3.75
      vertex -141.5 0.0 3.75
    endloop
  endfacet
  facet normal 1.0 -0.0 0.0
    outer loop
      vertex -141.5 -2.5 6.25
      vertex -141.5 0.0 3.75
      vertex -141.5 0.0 6.25
    endloop
  endfacet
  facet normal -1.0 0.0 0.0
    outer loop
      vertex 141.5 -2.5 3.75
      vertex 141.5 -2.5 6.25
      vertex 141.5 0.0 6.25
    endloop
  endfacet
  facet normal -1.0 0.0 0.0
    outer loop
      vertex 141.5 -2.5 3.75
      vertex 141.5 0.0 6.25
      vertex 141.5 0.0 3.75
    endloop
  endfacet
  facet normal 0.0 -1.0 0.0
    outer loop
      vertex -141.5 0.0 3.75
      vertex 141.5 0.0 3.75
      vertex 141.5 0.0 6.25
    endloop
  endfacet
  facet normal 0.0 -1.0 0.0
    outer loop
      vertex -141.5 0.0 3.75
      vertex 141.5 0.0 6.25
      vertex -141.5 0.0 6.25
    endloop
  endfacet
  facet normal -0.0 1.0 0.0
    outer loop
      vertex -141.5 -2.5 6.25
      vertex 141.5 -2.5 6.25
      vertex 141.5 -2.5 3.75
    endloop
  endfacet
  facet normal 0.0 1.0 0.0
    outer loop
      vertex -141.5 -2.5 6.25
      vertex 141.5 -2.5 3.75
      vertex -141.5 -2.5 3.75
    endloop
  endfacet
  facet normal 0.0 0.0 1.0
    outer loop
      vertex -149.75 -2.5 -92.0
      vertex -147.25 -2.5 -92.0
      vertex -147.25 0.0 -92.0
    endloop
  endfacet
  facet normal 0.0 0.0 1.0
    outer loop
      vertex -149.75 -2.5 -92.0
      vertex -147.25 0.0 -92.0
      vertex -149.75 0.0 -92.0
    endloop
  endfacet
  facet normal 0.0 0.0 -1.0
    outer loop
      vertex -147.25 -2.5 92.0
      vertex -149.75 -2.5 92.0
      vertex -149.75 0.0 92.0
    endloop
  endfacet
  facet normal 0.0 0.0 -1.0
    outer loop
      vertex -147.25 -2.5 92.0
      vertex -149.75 0.0 92.0
      vertex -147.25 0.0 92.0
    endloop
  endfacet
  facet normal 1.0 0.0 0.0
    outer loop
      vertex -149.75 -2.5 92.0
      vertex -149.75 -2.5 -92.0
      vertex -149.75 0.0 -92.0
    endloop
  endfacet
  facet normal 1.0 -0.0 0.0
    outer loop
      vertex -149.75 -2.5 92.0
      vertex -149.75 0.0 -92.0
      vertex -149.75 0.0 92.0
    endloop
  endfacet
  facet normal -1.0 0.0 0.0
    outer loop
      vertex -147.25 -2.5 -92.0
      vertex -147.25 -2.5 92.0
      vertex -147.25 0.0 92.0
    endloop
  endfacet
  facet normal -1.0 0.0 0.0
    outer loop
      vertex -147.25 -2.5 -92.0
      vertex -147.25 0.0 92.0
      vertex -147.25 0.0 -92.0
    endloop
  endfacet
  facet normal 0.0 -1.0 0.0
    outer loop
      vertex -149.75 0.0 -92.0
      vertex -147.25 0.0 -92.0
      vertex -147.25 0.0 92.0
    endloop
  endfacet
  facet normal 0.0 -1.0 0.0
    outer loop
      vertex -149.75 0.0 -92.0
      vertex -147.25 0.0 92.0
      vertex -149.75 0.0 92.0
    endloop
  endfacet
  facet normal -0.0 1.0 0.0
    outer loop
      vertex -149.75 -2.5 92.0
      vertex -147.25 -2.5 92.0
      vertex -147.25 -2.5 -92.0
    endloop
  endfacet
  facet normal 0.0 1.0 0.0
    outer loop
      vertex -149.75 -2.5 92.0
      vertex -147.25 -2.5 -92.0
      vertex -149.75 -2.5 -92.0
    endloop
  endfacet
  facet normal 0.0 0.0 1.0
    outer loop
      vertex 147.25 -2.5 -92.0
      vertex 149.75 -2.5 -92.0
      vertex 149.75 0.0 -92.0
    endloop
  endfacet
  facet normal 0.0 0.0 1.0
    outer loop
      vertex 147.25 -2.5 -92.0
      vertex 149.75 0.0 -92.0
      vertex 147.25 0.0 -92.0
    endloop
  endfacet
  facet normal 0.0 0.0 -1.0
    outer loop
      vertex 149.75 -2.5 92.0
      vertex 147.25 -2.5 92.0
      vertex 147.25 0.0 92.0
    endloop
  endfacet
  facet normal 0.0 0.0 -1.0
    outer loop
      vertex 149.75 -2.5 92.0
      vertex 147.25 0.0 92.0
      vertex 149.75 0.0 92.0
    endloop
  endfacet
  facet normal 1.0 0.0 0.0
    outer loop
      vertex 147.25 -2.5 92.0
      vertex 147.25 -2.5 -92.0
      vertex 147.25 0.0 -92.0
    endloop
  endfacet
  facet normal 1.0 -0.0 0.0
    outer loop
      vertex 147.25 -2.5 92.0
      vertex 147.25 0.0 -92.0
      vertex 147.25 0.0 92.0
    endloop
  endfacet
  facet normal -1.0 0.0 0.0
    outer loop
      vertex 149.75 -2.5 -92.0
      vertex 149.75 -2.5 92.0
      vertex 149.75 0.0 92.0
    endloop
  endfacet
  facet normal -1.0 0.0 0.0
    outer loop
      vertex 149.75 -2.5 -92.0
      vertex 149.75 0.0 92.0
      vertex 149.75 0.0 -92.0
    endloop
  endfacet
  facet normal 0.0 -1.0 0.0
    outer loop
      vertex 147.25 0.0 -92.0
      vertex 149.75 0.0 -92.0
      vertex 149.75 0.0 92.0
    endloop
  endfacet
  facet normal 0.0 -1.0 0.0
    outer loop
      vertex 147.25 0.0 -92.0
      vertex 149.75 0.0 92.0
      vertex 147.25 0.0 92.0
    endloop
  endfacet
  facet normal -0.0 1.0 0.0
    outer loop
      vertex 147.25 -2.5 92.0
      vertex 149.75 -2.5 92.0
      vertex 149.75 -2.5 -92.0
    endloop
  endfacet
  facet normal 0.0 1.0 0.0
    outer loop
      vertex 147.25 -2.5 92.0
      vertex 149.75 -2.5 -92.0
      vertex 147.25 -2.5 -92.0
    endloop
  endfacet
  facet normal 0.0 0.0 1.0
    outer loop
      vertex -152.0 0.0 100.0
      vertex 152.0 0.0 100.0
      vertex 152.0 82.0 100.0
    endloop
  endfacet
  facet normal 0.0 0.0 1.0
    outer loop
      vertex -152.0 0.0 100.0
      vertex 152.0 82.0 100.0
      vertex -152.0 82.0 100.0
    endloop
  endfacet
  facet normal 0.0 0.0 -1.0
    outer loop
      vertex 152.0 0.0 104.0
      vertex -152.0 0.0 104.0
      vertex -152.0 82.0 104.0
    endloop
  endfacet
  facet normal 0.0 0.0 -1.0
    outer loop
      vertex 152.0 0.0 104.0
      vertex -152.0 82.0 104.0
      vertex 152.0 82.0 104.0
    endloop
  endfacet
  facet normal 1.0 0.0 0.0
    outer loop
      vertex -152.0 0.0 104.0
      vertex -152.0 0.0 100.0
      vertex -152.0 82.0 100.0
    endloop
  endfacet
  facet normal 1.0 -0.0 0.0
    outer loop
      vertex -152.0 0.0 104.0
      vertex -152.0 82.0 100.0
      vertex -152.0 82.0 104.0
    endloop
  endfacet
  facet normal -1.0 0.0 0.0
    outer loop
      vertex 152.0 0.0 100.0
      vertex 152.0 0.0 104.0
      vertex 152.0 82.0 104.0
    endloop
  endfacet
  facet normal -1.0 0.0 0.0
    outer loop
      vertex 152.0 0.0 100.0
      vertex 152.0 82.0 104.0
      vertex 152.0 82.0 100.0
    endloop
  endfacet
  facet normal 0.0 -1.0 0.0
    outer loop
      vertex -152.0 82.0 100.0
      vertex 152.0 82.0 100.0
      vertex 152.0 82.0 104.0
    endloop
  endfacet
  facet normal 0.0 -1.0 0.0
    outer loop
      vertex -152.0 82.0 100.0
      vertex 152.0 82.0 104.0
      vertex -152.0 82.0 104.0
    endloop
  endfacet
  facet normal -0.0 1.0 0.0
    outer loop
      vertex -152.0 0.0 104.0
      vertex 152.0 0.0 104.0
      vertex 152.0 0.0 100.0
    endloop
  endfacet
  facet normal 0.0 1.0 0.0
    outer loop
      vertex -152.0 0.0 104.0
      vertex 152.0 0.0 100.0
      vertex -152.0 0.0 100.0
    endloop
  endfacet
  facet normal 0.0 0.0 1.0
    outer loop
      vertex -50.0 37.0 104.0
      vertex 50.0 37.0 104.0
      vertex 50.0 45.0 104.0
    endloop
  endfacet
  facet normal 0.0 0.0 1.0
    outer loop
      vertex -50.0 37.0 104.0
      vertex 50.0 45.0 104.0
      vertex -50.0 45.0 104.0
    endloop
  endfacet
  facet normal 0.0 0.0 -1.0
    outer loop
      vertex 50.0 37.0 119.0
      vertex -50.0 37.0 119.0
      vertex -50.0 45.0 119.0
    endloop
  endfacet
  facet normal 0.0 0.0 -1.0
    outer loop
      vertex 50.0 37.0 119.0
      vertex -50.0 45.0 119.0
      vertex 50.0 45.0 119.0
    endloop
  endfacet
  facet normal 1.0 0.0 0.0
    outer loop
      vertex -50.0 37.0 119.0
      vertex -50.0 37.0 104.0
      vertex -50.0 45.0 104.0
    endloop
  endfacet
  facet normal 1.0 -0.0 0.0
    outer loop
      vertex -50.0 37.0 119.0
      vertex -50.0 45.0 104.0
      vertex -50.0 45.0 119.0
    endloop
  endfacet
  facet normal -1.0 0.0 0.0
    outer loop
      vertex 50.0 37.0 104.0
      vertex 50.0 37.0 119.0
      vertex 50.0 45.0 119.0
    endloop
  endfacet
  facet normal -1.0 0.0 0.0
    outer loop
      vertex 50.0 37.0 104.0
      vertex 50.0 45.0 119.0
      vertex 50.0 45.0 104.0
    endloop
  endfacet
  facet normal 0.0 -1.0 0.0
    outer loop
      vertex -50.0 45.0 104.0
      vertex 50.0 45.0 104.0
      vertex 50.0 45.0 119.0
    endloop
  endfacet
  facet normal 0.0 -1.0 0.0
    outer loop
      vertex -50.0 45.0 104.0
      vertex 50.0 45.0 119.0
      vertex -50.0 45.0 119.0
    endloop
  endfacet
  facet normal -0.0 1.0 0.0
    outer loop
      vertex -50.0 37.0 119.0
      vertex 50.0 37.0 119.0
      vertex 50.0 37.0 104.0
    endloop
  endfacet
  facet normal 0.0 1.0 0.0
    outer loop
      vertex -50.0 37.0 119.0
      vertex 50.0 37.0 104.0
      vertex -50.0 37.0 104.0
    endloop
  endfacet
  facet normal 0.0 0.0 1.0
    outer loop
      vertex -45.0 37.0 104.0
      vertex -39.0 37.0 104.0
      vertex -39.0 45.0 104.0
    endloop
  endfacet
  facet normal 0.0 0.0 1.0
    outer loop
      vertex -45.0 37.0 104.0
      vertex -39.0 45.0 104.0
      vertex -45.0 45.0 104.0
    endloop
  endfacet
  facet normal 0.0 0.0 -1.0
    outer loop
      vertex -39.0 37.0 119.0
      vertex -45.0 37.0 119.0
      vertex -45.0 45.0 119.0
    endloop
  endfacet
  facet normal 0.0 0.0 -1.0
    outer loop
      vertex -39.0 37.0 119.0
      vertex -45.0 45.0 119.0
      vertex -39.0 45.0 119.0
    endloop
  endfacet
  facet normal 1.0 0.0 0.0
    outer loop
      vertex -45.0 37.0 119.0
      vertex -45.0 37.0 104.0
      vertex -45.0 45.0 104.0
    endloop
  endfacet
  facet normal 1.0 -0.0 0.0
    outer loop
      vertex -45.0 37.0 119.0
      vertex -45.0 45.0 104.0
      vertex -45.0 45.0 119.0
    endloop
  endfacet
  facet normal -1.0 0.0 0.0
    outer loop
      vertex -39.0 37.0 104.0
      vertex -39.0 37.0 119.0
      vertex -39.0 45.0 119.0
    endloop
  endfacet
  facet normal -1.0 0.0 0.0
    outer loop
      vertex -39.0 37.0 104.0
      vertex -39.0 45.0 119.0
      vertex -39.0 45.0 104.0
    endloop
  endfacet
  facet normal 0.0 -1.0 0.0
    outer loop
      vertex -45.0 45.0 104.0
      vertex -39.0 45.0 104.0
      vertex -39.0 45.0 119.0
    endloop
  endfacet
  facet normal 0.0 -1.0 0.0
    outer loop
      vertex -45.0 45.0 104.0
      vertex -39.0 45.0 119.0
      vertex -45.0 45.0 119.0
    endloop
  endfacet
  facet normal -0.0 1.0 0.0
    outer loop
      vertex -45.0 37.0 119.0
      vertex -39.0 37.0 119.0
      vertex -39.0 37.0 104.0
    endloop
  endfacet
  facet normal 0.0 1.0 0.0
    outer loop
      vertex -45.0 37.0 119.0
      vertex -39.0 37.0 104.0
      vertex -45.0 37.0 104.0
    endloop
  endfacet
  facet normal 0.0 0.0 1.0
    outer loop
      vertex 39.0 37.0 104.0
      vertex 45.0 37.0 104.0
      vertex 45.0 45.0 104.0
    endloop
  endfacet
  facet normal 0.0 0.0 1.0
    outer loop
      vertex 39.0 37.0 104.0
      vertex 45.0 45.0 104.0
      vertex 39.0 45.0 104.0
    endloop
  endfacet
  facet normal 0.0 0.0 -1.0
    outer loop
      vertex 45.0 37.0 119.0
      vertex 39.0 37.0 119.0
      vertex 39.0 45.0 119.0
    endloop
  endfacet
  facet normal 0.0 0.0 -1.0
    outer loop
      vertex 45.0 37.0 119.0
      vertex 39.0 45.0 119.0
      vertex 45.0 45.0 119.0
    endloop
  endfacet
  facet normal 1.0 0.0 0.0
    outer loop
      vertex 39.0 37.0 119.0
      vertex 39.0 37.0 104.0
      vertex 39.0 45.0 104.0
    endloop
  endfacet
  facet normal 1.0 -0.0 0.0
    outer loop
      vertex 39.0 37.0 119.0
      vertex 39.0 45.0 104.0
      vertex 39.0 45.0 119.0
    endloop
  endfacet
  facet normal -1.0 0.0 0.0
    outer loop
      vertex 45.0 37.0 104.0
      vertex 45.0 37.0 119.0
      vertex 45.0 45.0 119.0
    endloop
  endfacet
  facet normal -1.0 0.0 0.0
    outer loop
      vertex 45.0 37.0 104.0
      vertex 45.0 45.0 119.0
      vertex 45.0 45.0 104.0
    endloop
  endfacet
  facet normal 0.0 -1.0 0.0
    outer loop
      vertex 39.0 45.0 104.0
      vertex 45.0 45.0 104.0
      vertex 45.0 45.0 119.0
    endloop
  endfacet
  facet normal 0.0 -1.0 0.0
    outer loop
      vertex 39.0 45.0 104.0
      vertex 45.0 45.0 119.0
      vertex 39.0 45.0 119.0
    endloop
  endfacet
  facet normal -0.0 1.0 0.0
    outer loop
      vertex 39.0 37.0 119.0
      vertex 45.0 37.0 119.0
      vertex 45.0 37.0 104.0
    endloop
  endfacet
  facet normal 0.0 1.0 0.0
    outer loop
      vertex 39.0 37.0 119.0
      vertex 45.0 37.0 104.0
      vertex 39.0 37.0 104.0
    endloop
  endfacet
endsolid drawer_assembly
